# xmcd
# 
# Track frame offsets:
#     150
#     15516
#     28917
#     44203
#     60043
# 
# Disc length: 1022
# 
# Revision: 0
# Processed by: cddbd v1.5.2PL0 Copyright (c) Steve Scherf et al.
# Submitted via: fre:ac v1.0.17
# 
DISCID=3803fc05
DTITLE=Mörderblues - Promo
DYEAR=0
DGENRE=Alt. Rock
TTITLE0=1. Wand
TTITLE1=2. Hoelle
TTITLE2=3. Tanker
TTITLE3=4. Jetlag
TTITLE4=5. Sand
EXTD=
EXTT0=
EXTT1=
EXTT2=
EXTT3=
EXTT4=
PLAYORDER=
